<?xml version="1.0" ?><svg data-name="Layer 1" id="Layer_1" viewBox="0 0 128 128" xmlns="http://www.w3.org/2000/svg"><title/><path d="M64,0a64,64,0,1,0,64,64A64,64,0,0,0,64,0Zm5.28,78.63c-4.13,0-8-2.05-9.41-4.48,0,0-1.91,7.45-2.37,9.28-1.29,5.06-6,12-6.42,12.55a.43.43,0,0,1-.78-.2c-.14-.73-1.71-9.1-.54-14.27.69-3,4.43-19.4,4.43-19.4a13.73,13.73,0,0,1-1.32-5.79c-.09-5.42,3.12-9.48,7.2-9.48,3.47,0,5.2,2.5,5.25,5.5.06,3.35-2.08,8.35-3.15,13-.89,3.89,2.16,7.06,6.16,7.06,7.24,0,12.67-7.31,12.48-17.87-.16-9.34-7.28-15.87-17.29-15.87C52,38.66,45.3,47,45.45,55.59a15,15,0,0,0,3.18,8.9,1.15,1.15,0,0,1,.3,1.12c-.28,1.23-.93,3.88-1.05,4.42-.17.72-.57.87-1.35.52C41.4,68.29,38.1,61.16,38,55.45c-.21-12.31,8.92-23.62,26.49-23.62,14.13,0,25.28,9.64,25.5,22.54C90.23,67.81,81.56,78.63,69.28,78.63Z"/></svg>